# xmcd CD database file
#
# Track frame offsets:
#	150
#	18740
#	30825
#	48195
#	63945
#	79670
#	97110
#	115395
#	132165
#	147685
#	164977
#	182350
#	199762
#	217167
#	227915
#	241482
#
# Disc length: 3482 seconds
#
# Revision: 0
# Processed by: cddbd v1.5.1PL0 Copyright (c) Steve Scherf et al.
# Submitted via: CDex 1.51
#
DISCID=ea0d9810
DTITLE=Mega City Four - Sebastopol RD
DYEAR=1900
DGENRE=Rock
TTITLE0=Ticket Collector
TTITLE1=Scared of Cats
TTITLE2=Callous
TTITLE3=Peripheral
TTITLE4=Anne Bancroft
TTITLE5=Prague
TTITLE6=Clown
TTITLE7=Props
TTITLE8=What's Up
TTITLE9=Vague
TTITLE10=Stop
TTITLE11=Wasting My Breath
TTITLE12=Words That Say
TTITLE13=Untouchable
TTITLE14=Lipscar
TTITLE15=Mansion
EXTD=
EXTT0=
EXTT1=
EXTT2=
EXTT3=
EXTT4=
EXTT5=
EXTT6=
EXTT7=
EXTT8=
EXTT9=
EXTT10=
EXTT11=
EXTT12=
EXTT13=
EXTT14=
EXTT15=
PLAYORDER=
